HIERARCHY
ROOT Hips
{
	OFFSET 0.00000 0.00000 0.00000
	CHANNELS 6 Xposition Yposition Zposition Zrotation Yrotation Xrotation 
	JOINT LHipJoint
	{
		OFFSET 0 0 0
		CHANNELS 3 Zrotation Yrotation Xrotation
		JOINT LeftUpLeg
		{
			OFFSET 1.64549 -1.70879 0.84566
			CHANNELS 3 Zrotation Yrotation Xrotation
			JOINT LeftLeg
			{
				OFFSET 2.24963 -6.18082 0.00000
				CHANNELS 3 Zrotation Yrotation Xrotation
				JOINT LeftFoot
				{
					OFFSET 2.71775 -7.46697 0.00000
					CHANNELS 3 Zrotation Yrotation Xrotation
					JOINT LeftToeBase
					{
						OFFSET 0.18768 -0.51564 2.24737
						CHANNELS 3 Zrotation Yrotation Xrotation
						End Site
						{
							OFFSET 0.00000 -0.00000 1.15935
						}
					}
				}
			}
		}
	}
	JOINT RHipJoint
	{
		OFFSET 0 0 0
		CHANNELS 3 Zrotation Yrotation Xrotation
		JOINT RightUpLeg
		{
			OFFSET -1.58830 -1.70879 0.84566
			CHANNELS 3 Zrotation Yrotation Xrotation
			JOINT RightLeg
			{
				OFFSET -2.25006 -6.18201 0.00000
				CHANNELS 3 Zrotation Yrotation Xrotation
				JOINT RightFoot
				{
					OFFSET -2.72829 -7.49593 0.00000
					CHANNELS 3 Zrotation Yrotation Xrotation
					JOINT RightToeBase
					{
						OFFSET -0.21541 -0.59185 2.10643
						CHANNELS 3 Zrotation Yrotation Xrotation
						End Site
						{
							OFFSET -0.00000 -0.00000 1.09838
						}
					}
				}
			}
		}
	}
	JOINT LowerBack
	{
		OFFSET 0 0 0
		CHANNELS 3 Zrotation Yrotation Xrotation
		JOINT Spine
		{
			OFFSET 0.03142 2.10496 -0.11038
			CHANNELS 3 Zrotation Yrotation Xrotation
			JOINT Spine1
			{
				OFFSET -0.01863 2.10897 -0.06956
				CHANNELS 3 Zrotation Yrotation Xrotation
				JOINT Neck
				{
					OFFSET 0 0 0
					CHANNELS 3 Zrotation Yrotation Xrotation
					JOINT Neck1
					{
						OFFSET -0.02267 1.73238 0.00451
						CHANNELS 3 Zrotation Yrotation Xrotation
						JOINT Head
						{
							OFFSET -0.05808 1.54724 -0.61749
							CHANNELS 3 Zrotation Yrotation Xrotation
							End Site
							{
								OFFSET -0.01396 1.71468 -0.21082
							}
						}
					}
				}
				JOINT LeftShoulder
				{
					OFFSET 0 0 0
					CHANNELS 3 Zrotation Yrotation Xrotation
					JOINT LeftArm
					{
						OFFSET 3.44898 0.50298 0.21920
						CHANNELS 3 Zrotation Yrotation Xrotation
						JOINT LeftForeArm
						{
							OFFSET 5.41917 -0.00000 -0.00000
							CHANNELS 3 Zrotation Yrotation Xrotation
							JOINT LeftHand
							{
								OFFSET 2.44373 -0.00000 0.00000
								CHANNELS 3 Zrotation Yrotation Xrotation
								JOINT LeftFingerBase
								{
									OFFSET 0 0 0
									CHANNELS 3 Zrotation Yrotation Xrotation
									JOINT LeftHandIndex1
									{
										OFFSET 0.72750 -0.00000 0.00000
										CHANNELS 3 Zrotation Yrotation Xrotation
										End Site
										{
											OFFSET 0.58653 -0.00000 0.00000
										}
									}
								}
								JOINT LThumb
								{
									OFFSET 0 0 0
									CHANNELS 3 Zrotation Yrotation Xrotation
									End Site
									{
										OFFSET 0.59549 -0.00000 0.59549
									}
								}
							}
						}
					}
				}
				JOINT RightShoulder
				{
					OFFSET 0 0 0
					CHANNELS 3 Zrotation Yrotation Xrotation
					JOINT RightArm
					{
						OFFSET -3.23015 0.55830 0.31051
						CHANNELS 3 Zrotation Yrotation Xrotation
						JOINT RightForeArm
						{
							OFFSET -5.58976 -0.00010 0.00014
							CHANNELS 3 Zrotation Yrotation Xrotation
							JOINT RightHand
							{
								OFFSET -2.48060 -0.00000 0.00000
								CHANNELS 3 Zrotation Yrotation Xrotation
								JOINT RightFingerBase
								{
									OFFSET 0 0 0
									CHANNELS 3 Zrotation Yrotation Xrotation
									JOINT RightHandIndex1
									{
										OFFSET -0.81601 -0.00000 0.00000
										CHANNELS 3 Zrotation Yrotation Xrotation
										End Site
										{
											OFFSET -0.65789 -0.00000 0.00000
										}
									}
								}
								JOINT RThumb
								{
									OFFSET 0 0 0
									CHANNELS 3 Zrotation Yrotation Xrotation
									End Site
									{
										OFFSET -0.66793 -0.00000 0.66793
									}
								}
							}
						}
					}
				}
			}
		}
	}
}
MOTION
Frames: 11
Frame Time: .0083333
2.4417 16.1603 15.5875 0 0 0 0 0 0 -21 0 0 0 0 0 0 0 0 0 0 0 0 0 0 21 0 0 0 0 0 0 0 0 0 0 0 0 0 0 0 0 0 0 0 0 0 0 -16 0 0 21 0 0 11 0 0 0 -8 0 0 0 0 0 0 0 0 0 0 0 0 0 0 0 0 0 0 0 0 8 0 0 0 0 0 0 0 0 0 0 0 0 0 0 0 0 0
2.4417 16.1603 15.5875 0.8029 -15.2011 19.8173 0.0000 0.0000 0.0000 -26.8112 -25.1120 -14.1442 4.3061 12.5570 37.7319 2.4910 -0.9729 -29.6258 0.8154 -5.7622 -16.0960 0.0000 0.0000 0.0000 8.2704 27.3755 -65.6620 -5.2502 -13.6601 41.8927 1.1696 -25.2842 8.9546 -0.1663 -2.6269 7.2415 -1.0180 -1.4542 -3.0682 -1.7145 -2.1334 -8.6977 -1.1508 -1.0889 -7.3921 -0.4571 0.2013 -11.6214 6.6118 -2.4472 37.6742 2.4567 -0.3417 15.2118 0.0000 0.0000 0.0000 -68.9544 -36.7861 -25.7904 16.6330 -26.3714 -3.9229 -0.0000 0.0000 -32.0787 -18.8651 21.6369 -7.1809 -7.1250 0.0000 -0.0000 -43.7837 46.6598 -2.2200 0.0000 0.0000 0.0000 55.0717 -4.4428 -71.8463 -5.2488 9.0036 -0.4135 0.0000 0.0000 66.7725 3.6595 14.3847 0.9103 7.1250 -0.0000 -0.0000 20.8918 -16.1066 15.3430
2.4719 16.2164 15.4742 0.7224 -15.7986 19.9075 0.0000 0.0000 0.0000 -26.6946 -24.8419 -14.1546 4.0609 12.2410 36.5900 2.4328 0.0768 -29.5867 1.0495 -6.5145 -18.2847 0.0000 0.0000 0.0000 7.5233 27.7543 -65.8164 -5.1499 -13.5506 41.4662 1.3702 -25.7652 7.7000 -0.3449 -3.7735 10.4403 -1.0497 -1.5674 -2.9719 -1.6488 -2.2905 -8.7779 -1.0550 -1.1633 -7.5337 -0.5902 -0.2269 -11.7571 6.4954 -3.0772 38.0284 2.3431 -0.6486 15.4573 -0.0000 0.0000 0.0000 -69.7470 -35.3851 -26.7902 16.2409 -25.8461 -3.7503 -0.0000 0.0000 -31.3284 -19.6091 27.1498 -9.2337 -7.1250 0.0000 -0.0000 -48.4790 50.7316 -8.6079 -0.0000 0.0000 0.0000 55.5275 -4.1288 -73.1340 -5.1931 8.9098 -0.4049 0.0000 0.0000 67.7562 2.8104 14.3434 0.6968 7.1250 -0.0000 -0.0000 20.3526 -16.1351 14.8748
2.5039 16.2524 15.3405 0.7583 -16.4010 19.9980 0.0000 0.0000 0.0000 -26.5582 -24.3243 -14.6595 3.8919 12.0152 35.7857 2.3873 0.2737 -29.3704 1.1202 -6.7232 -18.8979 0.0000 0.0000 0.0000 6.8910 27.8959 -66.1345 -5.0829 -13.4766 41.1797 1.6714 -26.3091 5.4664 -0.7757 -5.6235 15.6958 -1.2365 -1.7368 -2.7939 -1.5898 -2.5252 -8.7687 -0.8748 -1.2651 -7.6195 -1.1327 -0.7632 -11.9453 6.6936 -3.8623 38.1753 2.4036 -1.0389 15.6399 -0.0000 -0.0000 0.0000 -70.1656 -34.5852 -28.8010 15.5058 -24.8460 -3.4357 -0.0000 0.0000 -29.6138 -18.5666 22.0497 -7.1868 -7.1250 0.0000 -0.0000 -43.8334 47.0266 -2.7072 -0.0000 -0.0000 0.0000 56.1818 -3.6355 -69.8707 -5.1359 8.8135 -0.3961 0.0000 0.0000 63.4905 1.3672 12.5859 0.2980 7.1250 -0.0000 -0.0000 19.6073 -17.7678 13.5053
2.5350 16.2926 15.2063 0.7895 -16.9311 20.0686 0.0000 0.0000 0.0000 -26.4600 -24.0839 -14.9936 3.7173 11.7744 34.9384 2.3771 0.2845 -29.3109 1.0897 -6.6342 -18.6361 0.0000 0.0000 0.0000 6.7300 27.6599 -66.3907 -5.0318 -13.4195 40.9600 1.7310 -26.0622 4.3750 -0.9566 -6.2281 17.4477 -1.4066 -1.9471 -2.6575 -1.5483 -2.8121 -8.6789 -0.7219 -1.3949 -7.5931 -2.1107 -1.2736 -11.8040 7.5334 -4.6958 37.9461 2.7982 -1.4380 15.6002 -0.0000 -0.0000 0.0000 -70.5130 -33.9163 -30.4100 14.9369 -24.0582 -3.2002 -0.0000 0.0000 -28.6275 -15.3876 19.5262 -5.2557 -7.1250 0.0000 -0.0000 -39.7556 45.4696 -0.5509 -0.0000 -0.0000 0.0000 56.6145 -2.4824 -76.7500 -5.0850 8.7278 -0.3883 0.0000 0.0000 70.5147 0.7790 13.4575 0.1813 7.1250 -0.0000 -0.0000 19.1283 -16.9355 13.5065
2.5608 16.3369 15.0845 0.8524 -17.3828 20.1298 0.0000 0.0000 0.0000 -26.4603 -24.1530 -15.1255 3.5772 11.5754 34.2460 2.3645 1.1520 -29.5297 1.2808 -7.1720 -20.2259 0.0000 0.0000 0.0000 6.8010 27.2393 -66.5421 -5.0026 -13.3867 40.8338 1.6116 -26.3519 6.1637 -0.6044 -4.9763 13.8410 -1.6236 -2.1587 -2.6736 -1.5297 -3.0963 -8.5355 -0.5740 -1.5224 -7.4171 -2.6125 -1.8144 -12.2064 7.9546 -5.5857 38.0527 2.9284 -1.8308 15.8610 -0.0000 -0.0000 0.0000 -70.9031 -33.4273 -31.8019 14.4958 -23.4390 -3.0225 -0.0000 0.0000 -28.0217 -15.2531 18.4105 -4.9222 -7.1250 0.0000 -0.0000 -38.9981 44.5793 0.4829 -0.0000 -0.0000 0.0000 57.1899 -1.4579 -81.6031 -5.0551 8.6774 -0.3838 0.0000 0.0000 75.1058 -0.1341 13.9287 -0.0323 7.1250 -0.0000 -0.0000 18.4842 -16.4693 13.1973
2.5940 16.3745 14.9617 0.9487 -17.6272 19.9756 0.0000 0.0000 0.0000 -26.5669 -24.2469 -15.0388 3.4511 11.3917 33.6127 2.2997 2.0323 -29.4561 1.1525 -6.8164 -19.1726 0.0000 0.0000 0.0000 6.9722 26.5466 -66.4301 -5.0015 -13.3854 40.8290 1.3619 -25.9023 7.9679 -0.2727 -3.3587 9.2791 -1.6784 -2.3920 -2.4140 -1.5468 -3.4156 -8.3731 -0.5412 -1.6780 -7.3893 -2.9561 -2.2711 -12.0696 8.1669 -6.2870 37.9376 2.9590 -2.1625 15.8543 0.0000 -0.0000 0.0000 -71.0482 -33.3988 -35.1551 13.4725 -21.9756 -2.6275 -0.0000 0.0000 -25.1929 -17.5614 16.0650 -5.0051 -7.1250 0.0000 -0.0000 -39.4416 42.3624 3.1159 0.0000 -0.0000 0.0000 57.7186 -0.5134 -87.0127 -5.0556 8.6782 -0.3838 0.0000 0.0000 80.0672 -1.1166 14.1498 -0.2730 7.1250 -0.0000 -0.0000 17.8200 -16.2325 12.7678
2.6075 16.3902 14.8207 1.3887 -18.4045 19.7061 0.0000 0.0000 0.0000 -26.9158 -24.0172 -15.3412 3.3440 11.2322 33.0670 2.2469 2.2876 -29.2263 0.9899 -6.3326 -17.7525 0.0000 0.0000 0.0000 5.4336 27.6166 -66.3609 -5.0234 -13.4101 40.9239 1.7802 -27.2154 5.8282 -0.5053 -4.5570 12.6491 -2.5649 -2.4964 -1.9705 -1.5836 -3.5935 -8.3135 -0.0616 -1.7059 -7.5336 -3.3872 -2.8166 -11.8518 8.3930 -7.1004 37.7650 2.9905 -2.5554 15.8196 0.0000 -0.0000 0.0000 -72.7406 -31.5082 -31.2042 14.4663 -23.3974 -3.0108 -0.0000 0.0000 -28.5604 -15.3465 19.7478 -5.2978 -7.1250 0.0000 -0.0000 -39.8564 45.6547 -0.7699 0.0000 -0.0000 0.0000 58.0812 0.5484 -96.1430 -5.1911 8.9066 -0.4046 0.0000 0.0000 88.8914 -2.2454 14.5879 -0.5658 7.1250 -0.0000 -0.0000 17.0428 -15.7778 12.3315
2.6367 16.4165 14.7096 1.4282 -18.8941 19.6863 0.0000 0.0000 0.0000 -26.9438 -24.0239 -15.5420 3.2567 11.0995 32.6162 2.2916 1.9630 -29.3790 0.6471 -5.1461 -14.3257 0.0000 0.0000 0.0000 5.6869 27.1085 -66.4140 -5.0682 -13.4602 41.1166 1.5574 -26.9410 7.5811 -0.2624 -3.2954 9.1022 -2.7300 -2.6617 -1.8883 -1.4657 -3.8209 -8.3604 0.1681 -1.8025 -7.6112 -4.1151 -3.2988 -11.2283 8.7791 -7.7987 37.5216 3.1673 -2.9372 15.6699 -0.0000 -0.0000 0.0000 -73.4876 -31.0627 -33.1030 13.9456 -22.6569 -2.8071 -0.0000 0.0000 -27.3151 -13.9723 20.3799 -4.9522 -7.1250 0.0000 -0.0000 -39.1518 46.3566 -1.5498 -0.0000 -0.0000 0.0000 58.2740 1.3920 -103.7712 -5.3408 9.1584 -0.4281 0.0000 0.0000 96.3210 -3.3352 15.2250 -0.8768 7.1250 -0.0000 -0.0000 16.2819 -15.1245 11.9706
2.6658 16.4357 14.5870 1.5433 -19.4844 19.5471 0.0000 0.0000 0.0000 -27.0953 -23.7884 -15.8180 3.1978 11.0086 32.3088 2.3008 2.0340 -29.4641 0.4751 -4.4205 -12.2629 0.0000 0.0000 0.0000 5.5110 27.0643 -66.3886 -5.1217 -13.5196 41.3460 1.4403 -26.8026 8.4650 -0.1246 -2.2751 6.2665 -3.0448 -2.8554 -1.5180 -1.3763 -4.1048 -8.3768 0.4691 -1.9149 -7.8125 -4.8438 -3.7213 -10.7638 9.2694 -8.4693 37.3879 3.3988 -3.2913 15.6321 0.0000 0.0000 0.0000 -74.0517 -30.5585 -35.5004 13.3445 -21.7899 -2.5798 -0.0000 0.0000 -24.8740 -13.9402 20.2009 -4.8990 -7.1250 0.0000 -0.0000 -39.0176 46.2155 -1.3832 0.0000 0.0000 0.0000 58.6794 2.1901 -107.5216 -5.4003 9.2584 -0.4376 0.0000 0.0000 99.9737 -4.1091 15.6559 -1.1106 7.1250 -0.0000 -0.0000 15.7477 -14.6751 11.7028
2.6955 16.4550 14.4610 1.6275 -20.0688 19.2193 0.0000 0.0000 0.0000 -27.2479 -23.4147 -16.0561 3.1626 10.9537 32.1238 2.2430 2.7355 -29.3852 0.5777 -4.8673 -13.5304 0.0000 0.0000 0.0000 5.1315 27.4016 -65.9924 -5.1669 -13.5694 41.5390 1.5859 -27.1376 7.5986 -0.1710 -2.6643 7.3454 -3.3143 -3.0521 -0.8918 -1.3064 -4.4044 -8.3364 0.7418 -2.0351 -8.1018 -5.3896 -4.1305 -10.4887 9.5955 -9.1323 37.4218 3.5314 -3.6309 15.7155 -0.0000 -0.0000 0.0000 -74.4330 -30.1043 -41.2219 12.0135 -19.8249 -2.1069 -0.0000 0.0000 -16.6366 -18.5741 15.3355 -5.0786 -7.1250 0.0000 -0.0000 -39.7899 41.6364 4.0417 -0.0000 -0.0000 0.0000 59.2118 3.0167 -110.4462 -5.4527 9.3463 -0.4461 0.0000 0.0000 102.6550 -5.1187 15.6293 -1.3824 7.1250 -0.0000 -0.0000 15.0863 -14.6512 11.1811
